# xmcd CD database file
#
# Track frame offsets:
#	150
#	12472
#	27912
#	36922
#	50150
#	64170
#	80522
#	92450
#	105927
#	129687
#	145000
#	155292
#	172270
#	188695
#	203422
#	221092
#	233342
#	247255
#	261245
#	272612
#	283285
#	296357
#	311265
#	324077
#
# Disc length: 4486 seconds
#
# Revision: 0
# Processed by: cddbd v1.5.2PL0 Copyright (c) Steve Scherf et al.
# Submitted via: CDex 1.51
#
DISCID=54118418
DTITLE=Various Artist - Great Men Sing Jazz
DYEAR=1998
DGENRE=Jazz
TTITLE0=Mona Liza
TTITLE1=P.S. I love you
TTITLE2=Day by Day
TTITLE3=It's only a paper moon
TTITLE4=Guilty
TTITLE5=Ain't misbehavin'
TTITLE6=Night and Day
TTITLE7=A kill to build a dream on
TTITLE8=The Masquerade is over
TTITLE9=Embraceable You
TTITLE10=I only have eyes on you
TTITLE11=You go to my head
TTITLE12=Too young
TTITLE13=The Devil is a Woman
TTITLE14=Cabaret
TTITLE15=Autumn Leaves
TTITLE16=White Christmas
TTITLE17=Guess I'll hanve my tears our to dry
TTITLE18=Hello Dolly
TTITLE19=I don't know why
TTITLE20=My foolish heart
TTITLE21=Blueberry Hill
TTITLE22=Everything I have yours
TTITLE23=Unforgettable
EXTD=YEAR: 1998
EXTT0=
EXTT1=
EXTT2=
EXTT3=
EXTT4=
EXTT5=
EXTT6=
EXTT7=
EXTT8=
EXTT9=
EXTT10=
EXTT11=
EXTT12=
EXTT13=
EXTT14=
EXTT15=
EXTT16=
EXTT17=
EXTT18=
EXTT19=
EXTT20=
EXTT21=
EXTT22=
EXTT23=
PLAYORDER=
